<?xml version="1.0" standalone="no"?><!DOCTYPE svg PUBLIC "-//W3C//DTD SVG 1.1//EN"
        "http://www.w3.org/Graphics/SVG/1.1/DTD/svg11.dtd">
<svg t="1729865780240" class="icon" viewBox="0 0 1024 1024" version="1.1" xmlns="http://www.w3.org/2000/svg" p-id="1545"
     width="200" height="200">
    <path d="M475.29332541 890.78164219h-54.66951538c-134.85147124 0-244.71116401-109.85969279-244.71116401-244.71116404V379.23117698c0-134.85147124 109.85969279-244.71116401 244.71116401-244.71116402h54.66951538c134.85147124 0 244.71116401 109.85969279 244.711164 244.71116402v266.83930117c0 135.11180226-109.85969279 244.71116401-244.711164 244.71116404z m-54.66951538-691.17887286c-98.92578971 0-179.62840764 80.70261791-179.62840764 179.62840765v266.83930117c0 98.92578971 80.70261791 179.62840764 179.62840764 179.62840765h54.66951538c98.92578971 0 179.62840764-80.70261791 179.62840761-179.62840765V379.23117698c0-98.92578971-80.70261791-179.62840764-179.62840761-179.62840765h-54.66951538z"
          fill="#dbdbdb" p-id="1546"></path>
    <path d="M414.11553437 265.98718086h65.08275641v171.81847685h-65.08275641z" fill="#dbdbdb" p-id="1547"></path>
</svg>